{"title":"Ice.Quake.2010.BRRip.480.XviD.Ac3.Feel-Free","uid":6503434,"size":1282405421,"categoryP":"video","categoryS":"movies","magnet":"?xt=urn:btih:c458bedb08943c67408dff9c794590f685e5d885&amp;dn=Ice.Quake.2010.BRRip.480.XviD.Ac3.Feel-Free&amp;tr=udp%3A%2F%2Ftracker.openbittorrent.com%3A80&amp;tr=udp%3A%2F%2Fopen.demonii.com%3A1337&amp;tr=udp%3A%2F%2Ftracker.coppersurfer.tk%3A6969&amp;tr=udp%3A%2F%2Fexodus.desync.com%3A6969","seeders":1,"leechers":0,"uploader":"hiest","files":-1,"time":1309342454,"description":" Full Credits To Feel Free :)\n\n ######## ######## ######## ##          ######## ########  ######## ######## \n ##       ##       ##       ##          ##       ##     ## ##       ##       \n ##       ##       ##       ##          ##       ##     ## ##       ##       \n ######   ######   ######   ##          ######   ########  ######   ######   \n ##       ##       ##       ##          ##       ##   ##   ##       ##       \n ##       ##       ##       ##          ##       ##    ##  ##       ##       \n ##       ######## ######## ########    ##       ##     ## ######## ########\n\n\n Genre:Sci-Fi\n Language:English\n IMDb:http://www.imdb.com/title/tt1657284\n Source:BluRay.x264-BRMP Thanks!\n\n Format : AVI\n Format/Info : Audio Video Interleave\n File size : 1.19 GiB\n Duration : 1h 30mn\n Overall bit rate : 1 892 Kbps\n\n Video\n ID : 0\n Format : MPEG-4 Visual\n Format profile : Advanced Simple@L5\n Format settings, BVOP : Yes\n Format settings, QPel : No\n Format settings, GMC : No warppoints\n Format settings, Matrix : Default (H.263)\n Codec ID : XVID\n Codec ID/Hint : XviD\n Duration : 1h 30mn\n Bit rate : 1 435 Kbps\n Width : 720 pixels\n Height : 400 pixels\n Display aspect ratio : 16:9\n Frame rate : 24.000 fps\n Color space : YUV\n Chroma subsampling : 4:2:0\n Bit depth : 8 bits\n Scan type : Progressive\n Bits/(Pixel*Frame) : 0.208\n Stream size : 926 MiB (76%)\n Writing library : XviD 1.2.1 (UTC 2008-12-04)\n\n Audio\n ID : 1\n Format : AC-3\n Format/Info : Audio Coding 3\n Mode extension : CM (complete main)\n Codec ID : 2000\n Duration : 1h 30mn\n Bit rate mode : Constant\n Bit rate : 448 Kbps\n Channel(s) : 6 channels\n Channel positions : Front: L C R, Side: L R, LFE\n Sampling rate : 48.0 KHz\n Bit depth : 16 bits\n Stream size : 289 MiB (24%)\n Alignment : Aligned on interleaves\n Interleave, duration : 42 ms (1.00 video frame)\n Interleave, preload duration : 512 ms\n\n\n Plot:\n Beneath the Alaskan landscape, the melting permafrost is about to drastically \n alter the tranquil scenery...\n\n\n Screen Shots:\n\n &lt;a href=&quot; http://leetleech.org/images/29496142496691718285.png&quot; rel=&quot;nofollow&quot; target=&quot;_NEW&quot;&gt; http://leetleech.org/images/29496142496691718285.png&lt;/a&gt;\n\n &lt;a href=&quot; http://leetleech.org/images/56556745440354891260.png&quot; rel=&quot;nofollow&quot; target=&quot;_NEW&quot;&gt; http://leetleech.org/images/56556745440354891260.png&lt;/a&gt;\n\n &lt;a href=&quot; http://leetleech.org/images/69114941370887488610.png&quot; rel=&quot;nofollow&quot; target=&quot;_NEW&quot;&gt; http://leetleech.org/images/69114941370887488610.png&lt;/a&gt;\n\n &lt;a href=&quot; http://leetleech.org/images/20057090029306721282.png&quot; rel=&quot;nofollow&quot; target=&quot;_NEW&quot;&gt; http://leetleech.org/images/20057090029306721282.png&lt;/a&gt;\n\n\n\n Full Credits To Feel Free :)\n\n ######## ######## ######## ##          ######## ########  ######## ######## \n ##       ##       ##       ##          ##       ##     ## ##       ##       \n ##       ##       ##       ##          ##       ##     ## ##       ##       \n ######   ######   ######   ##          ######   ########  ######   ######   \n ##       ##       ##       ##          ##       ##   ##   ##       ##       \n ##       ##       ##       ##          ##       ##    ##  ##       ##       \n ##       ######## ######## ########    ##       ##     ## ######## ########","torrent":{"xt":"urn:btih:c458bedb08943c67408dff9c794590f685e5d885","amp;dn":"Ice.Quake.2010.BRRip.480.XviD.Ac3.Feel-Free","amp;tr":["udp%3A%2F%2Ftracker.openbittorrent.com%3A80","udp%3A%2F%2Fopen.demonii.com%3A1337","udp%3A%2F%2Ftracker.coppersurfer.tk%3A6969","udp%3A%2F%2Fexodus.desync.com%3A6969"],"infoHash":"c458bedb08943c67408dff9c794590f685e5d885","infoHashBuffer":{"type":"Buffer","data":[196,88,190,219,8,148,60,103,64,141,255,156,121,69,144,246,133,229,216,133]},"announce":[],"urlList":[]}}